<?xml version="1.0" encoding="UTF-8" standalone="no"?>
<svg
   width="18"
   height="18"
   viewBox="0 0 18 18"
   version="1.1"
   id="svg8"
   sodipodi:docname="search.svg"
   inkscape:version="1.1.1 (3bf5ae0d25, 2021-09-20, custom)"
   xmlns:inkscape="http://www.inkscape.org/namespaces/inkscape"
   xmlns:sodipodi="http://sodipodi.sourceforge.net/DTD/sodipodi-0.dtd"
   xmlns="http://www.w3.org/2000/svg"
   xmlns:svg="http://www.w3.org/2000/svg">
  <defs
     id="defs12" />
  <sodipodi:namedview
     id="namedview10"
     pagecolor="#ffffff"
     bordercolor="#666666"
     borderopacity="1.0"
     inkscape:pageshadow="2"
     inkscape:pageopacity="0.0"
     inkscape:pagecheckerboard="0"
     showgrid="false"
     inkscape:zoom="48.5"
     inkscape:cx="8.9896907"
     inkscape:cy="8.9484536"
     inkscape:window-width="2560"
     inkscape:window-height="1403"
     inkscape:window-x="0"
     inkscape:window-y="0"
     inkscape:window-maximized="1"
     inkscape:current-layer="svg8" />
  <g
     fill="none"
     fill-rule="evenodd"
     id="g6">
    <g
       fill="#FFF"
       fill-rule="nonzero"
       id="g4">
      <path
         d="M1032.755 74.754l.995-.995c.33-.33.33-.865.004-1.195l-3.505-3.505c-.158-.159-.373-.247-.598-.247h-.573c.97-1.24 1.547-2.801 1.547-4.5 0-4.039-3.273-7.312-7.313-7.312-4.039 0-7.312 3.273-7.312 7.312 0 4.04 3.273 7.313 7.312 7.313 1.699 0 3.26-.577 4.5-1.547v.573c0 .225.088.44.247.598l3.505 3.505c.33.33.864.33 1.191 0zm-9.443-5.942c-2.485 0-4.5-2.01-4.5-4.5 0-2.485 2.011-4.5 4.5-4.5 2.486 0 4.5 2.011 4.5 4.5 0 2.486-2.01 4.5-4.5 4.5z"
         transform="translate(-1016 -57)"
         id="path2" />
    </g>
  </g>
</svg>
